<svg width="211" height="67" viewBox="0 0 211 67" fill="none" xmlns="http://www.w3.org/2000/svg">
<rect width="210" height="67" transform="translate(0.5)" fill="white"/>
<path fill-rule="evenodd" clip-rule="evenodd" d="M15.6001 5H17.6001V50H15.6001V5ZM19.6001 5H21.6001V50H19.6001V5ZM29.6001 5H25.6001V44H29.6001V5ZM33.6001 5H35.6001V44H33.6001V5ZM39.6001 5H37.6001V44H39.6001V5ZM45.6001 5H49.6001V44H45.6001V5ZM53.6001 5H51.6001V44H53.6001V5ZM57.6001 5H63.6001V44H57.6001V5ZM67.6001 5H65.6001V44H67.6001V5ZM71.6001 5H77.6001V44H71.6001V5ZM87.6001 5H83.6001V44H87.6001V5ZM89.6001 5H91.6001V44H89.6001V5ZM95.6001 5H93.6001V44H95.6001V5ZM99.6001 5H105.6V44H99.6001V5ZM109.6 5H107.6V50H109.6V5ZM111.6 5H113.6V50H111.6V5ZM121.6 5H115.6V44H121.6V5ZM125.6 5H127.6V44H125.6V5ZM133.6 5H129.6V44H133.6V5ZM137.6 5H141.6V44H137.6V5ZM149.6 5H143.6V44H149.6V5ZM153.6 5H155.6V44H153.6V5ZM159.6 5H157.6V44H159.6V5ZM163.6 5H165.6V44H163.6V5ZM173.6 5H171.6V44H173.6V5ZM175.6 5H177.6V44H175.6V5ZM187.6 5H185.6V44H187.6V5ZM189.6 5H195.6V44H189.6V5ZM201.6 5H199.6V50H201.6V5ZM203.6 5H205.6V50H203.6V5Z" fill="black"/>
<path d="M5.5 62V60.8C5.8 60.1 6.2 59.5 6.6 59C7 58.4 7.5 58 7.9 57.5C8.4 57.1 8.9 56.7 9.3 56.3C9.8 55.9 10.2 55.5 10.6 55.2C11 54.9 11.3 54.4 11.5 54C11.7 53.6 11.8 53.1 11.8 52.6C11.8 52.2 11.7 51.9 11.6 51.6C11.6 51.3 11.5 51.1 11.3 50.9C11.1 50.7 10.8 50.6 10.6 50.5C10.3 50.4 10 50.3 9.6 50.3C9.3 50.3 9 50.3 8.7 50.4C8.5 50.6 8.2 50.7 8 50.9C7.8 51.1 7.6 51.3 7.5 51.6C7.3 51.9 7.2 52.2 7.2 52.5L5.6 52.4C5.6 51.9 5.8 51.5 5.9 51.1C6.1 50.6 6.4 50.3 6.7 50C7 49.7 7.5 49.4 7.9 49.3C8.5 49.1 9 49 9.6 49C10.2 49 10.8 49.1 11.2 49.2C11.7 49.3 12.1 49.6 12.4 49.9C12.8 50.2 13.1 50.6 13.2 51C13.4 51.4 13.5 51.9 13.5 52.5C13.5 52.9 13.4 53.3 13.3 53.7C13.2 54.1 13 54.5 12.7 54.8C12.5 55.2 12.2 55.5 11.8 55.8C11.5 56.1 11.1 56.4 10.8 56.8C10.4 57.1 10.1 57.4 9.7 57.7C9.3 58 9 58.3 8.7 58.6C8.4 58.9 8.1 59.2 7.8 59.5C7.6 59.8 7.4 60.1 7.2 60.5H13.7V62H5.5Z" fill="black"/>
<path d="M36 62V60.6H39.2V50.6L36.3 52.7V51.1L39.3 49H40.8V60.6H43.8V62H36ZM52.4 59.2V62H50.9V59.2H45.1V58L50.8 49H52.5V58H54.2V59.3H52.4V59.2ZM50.8 50.9C50.8 50.9 50.8 51 50.7 51.1C50.7 51.2 50.6 51.3 50.5 51.4C50.4 51.5 50.4 51.6 50.3 51.8C50.2 51.9 50.2 52 50.1 52.1L46.9 57.2C46.9 57.3 46.8 57.3 46.8 57.4C46.7 57.5 46.7 57.6 46.6 57.6C46.5 57.7 46.5 57.8 46.4 57.8C46.3 57.9 46.3 57.9 46.3 57.9H50.7V50.9H50.8ZM63.9 55.5C63.9 56.7 63.8 57.7 63.6 58.6C63.4 59.4 63.1 60.1 62.7 60.6C62.3 61.1 61.9 61.5 61.3 61.7C60.7 61.9 60.2 62 59.6 62C59 62 58.4 61.9 57.9 61.7C57.4 61.5 56.9 61.1 56.5 60.6C56.1 60.1 55.8 59.4 55.6 58.6C55.4 57.8 55.3 56.7 55.3 55.5C55.3 54.2 55.4 53.2 55.6 52.3C55.8 51.5 56.1 50.8 56.5 50.3C56.9 49.8 57.3 49.5 57.9 49.3C58.4 49.1 59 49 59.6 49C60.2 49 60.7 49.1 61.3 49.3C61.8 49.5 62.3 49.8 62.7 50.3C63.1 50.8 63.4 51.5 63.6 52.3C63.8 53.2 63.9 54.2 63.9 55.5ZM62.3 55.5C62.3 54.5 62.2 53.7 62.1 53C62 52.3 61.8 51.8 61.6 51.4C61.4 51 61.1 50.7 60.8 50.6C60.5 50.4 60.1 50.4 59.7 50.4C59.3 50.4 58.9 50.5 58.5 50.7C58.1 50.7 57.8 51 57.6 51.4C57.4 51.8 57.2 52.3 57.1 53C57 53.7 56.9 54.5 56.9 55.5C56.9 56.5 57 57.3 57.1 58C57.2 58.7 57.4 59.2 57.6 59.6C57.8 60 58.1 60.3 58.5 60.5C58.8 60.7 59.2 60.7 59.6 60.7C60 60.7 60.4 60.6 60.7 60.5C61 60.3 61.3 60 61.5 59.6C61.7 59.2 61.9 58.7 62 58C62.2 57.3 62.3 56.5 62.3 55.5ZM73.9 55.5C73.9 56.7 73.8 57.7 73.6 58.6C73.4 59.4 73.1 60.1 72.7 60.6C72.3 61.1 71.9 61.5 71.3 61.7C70.7 61.9 70.2 62 69.6 62C69 62 68.4 61.9 67.9 61.7C67.4 61.5 66.9 61.1 66.5 60.6C66.1 60.1 65.8 59.4 65.6 58.6C65.4 57.8 65.3 56.7 65.3 55.5C65.3 54.2 65.4 53.2 65.6 52.3C65.8 51.5 66.1 50.8 66.5 50.3C66.9 49.8 67.3 49.5 67.9 49.3C68.4 49.1 69 49 69.6 49C70.2 49 70.7 49.1 71.3 49.3C71.8 49.5 72.3 49.8 72.7 50.3C73.1 50.8 73.4 51.5 73.6 52.3C73.8 53.2 73.9 54.2 73.9 55.5ZM72.3 55.5C72.3 54.5 72.2 53.7 72.1 53C72 52.3 71.8 51.8 71.6 51.4C71.4 51 71.1 50.7 70.8 50.6C70.5 50.4 70.1 50.4 69.7 50.4C69.3 50.4 68.9 50.5 68.5 50.7C68.1 50.7 67.8 51 67.6 51.4C67.4 51.8 67.2 52.3 67.1 53C67 53.7 66.9 54.5 66.9 55.5C66.9 56.5 67 57.3 67.1 58C67.2 58.7 67.4 59.2 67.6 59.6C67.8 60 68.1 60.3 68.5 60.5C68.8 60.7 69.2 60.7 69.6 60.7C70 60.7 70.4 60.6 70.7 60.5C71 60.3 71.3 60 71.5 59.6C71.7 59.2 71.9 58.7 72 58C72.2 57.3 72.3 56.5 72.3 55.5ZM83.9 55.5C83.9 56.7 83.8 57.7 83.6 58.6C83.4 59.4 83.1 60.1 82.7 60.6C82.3 61.1 81.9 61.5 81.3 61.7C80.7 61.9 80.2 62 79.6 62C79 62 78.4 61.9 77.9 61.7C77.4 61.5 76.9 61.1 76.5 60.6C76.1 60.1 75.8 59.4 75.6 58.6C75.4 57.8 75.3 56.7 75.3 55.5C75.3 54.2 75.4 53.2 75.6 52.3C75.8 51.5 76.1 50.8 76.5 50.3C76.9 49.8 77.3 49.5 77.9 49.3C78.4 49.1 79 49 79.6 49C80.2 49 80.7 49.1 81.3 49.3C81.8 49.5 82.3 49.8 82.7 50.3C83.1 50.8 83.4 51.5 83.6 52.3C83.8 53.2 83.9 54.2 83.9 55.5ZM82.3 55.5C82.3 54.5 82.2 53.7 82.1 53C82 52.3 81.8 51.8 81.6 51.4C81.4 51 81.1 50.7 80.8 50.6C80.5 50.4 80.1 50.4 79.7 50.4C79.3 50.4 78.9 50.5 78.5 50.7C78.1 50.7 77.8 51 77.6 51.4C77.4 51.8 77.2 52.3 77.1 53C77 53.7 76.9 54.5 76.9 55.5C76.9 56.5 77 57.3 77.1 58C77.2 58.7 77.4 59.2 77.6 59.6C77.8 60 78.1 60.3 78.5 60.5C78.8 60.7 79.2 60.7 79.6 60.7C80 60.7 80.4 60.6 80.7 60.5C81 60.3 81.3 60 81.5 59.6C81.7 59.2 81.9 58.7 82 58C82.2 57.3 82.3 56.5 82.3 55.5ZM93.9 55.5C93.9 56.7 93.8 57.7 93.6 58.6C93.4 59.4 93.1 60.1 92.7 60.6C92.3 61.1 91.9 61.5 91.3 61.7C90.7 61.9 90.2 62 89.6 62C89 62 88.4 61.9 87.9 61.7C87.4 61.5 86.9 61.1 86.5 60.6C86.1 60.1 85.8 59.4 85.6 58.6C85.4 57.8 85.3 56.7 85.3 55.5C85.3 54.2 85.4 53.2 85.6 52.3C85.8 51.5 86.1 50.8 86.5 50.3C86.9 49.8 87.3 49.5 87.9 49.3C88.4 49.1 89 49 89.6 49C90.2 49 90.7 49.1 91.3 49.3C91.8 49.5 92.3 49.8 92.7 50.3C93.1 50.8 93.4 51.5 93.6 52.3C93.8 53.2 93.9 54.2 93.9 55.5ZM92.3 55.5C92.3 54.5 92.2 53.7 92.1 53C92 52.3 91.8 51.8 91.6 51.4C91.4 51 91.1 50.7 90.8 50.6C90.5 50.4 90.1 50.4 89.7 50.4C89.3 50.4 88.9 50.5 88.5 50.7C88.1 50.7 87.8 51 87.6 51.4C87.4 51.8 87.2 52.3 87.1 53C87 53.7 86.9 54.5 86.9 55.5C86.9 56.5 87 57.3 87.1 58C87.2 58.7 87.4 59.2 87.6 59.6C87.8 60 88.1 60.3 88.5 60.5C88.8 60.7 89.2 60.7 89.6 60.7C90 60.7 90.4 60.6 90.7 60.5C91 60.3 91.3 60 91.5 59.6C91.7 59.2 91.9 58.7 92 58C92.2 57.3 92.3 56.5 92.3 55.5Z" fill="black"/>
<path d="M135.9 55.5C135.9 56.7 135.8 57.7 135.6 58.6C135.4 59.4 135.1 60.1 134.7 60.6C134.3 61.1 133.9 61.5 133.3 61.7C132.7 61.9 132.2 62 131.6 62C131 62 130.4 61.9 129.9 61.7C129.4 61.5 128.9 61.1 128.5 60.6C128.1 60.1 127.8 59.4 127.6 58.6C127.4 57.8 127.3 56.7 127.3 55.5C127.3 54.2 127.4 53.2 127.6 52.3C127.8 51.5 128.1 50.8 128.5 50.3C128.9 49.8 129.3 49.5 129.9 49.3C130.4 49.1 131 49 131.6 49C132.2 49 132.7 49.1 133.3 49.3C133.8 49.5 134.3 49.8 134.7 50.3C135.1 50.8 135.4 51.5 135.6 52.3C135.8 53.2 135.9 54.2 135.9 55.5ZM134.3 55.5C134.3 54.5 134.2 53.7 134.1 53C134 52.3 133.8 51.8 133.6 51.4C133.4 51 133.1 50.7 132.8 50.6C132.4 50.4 132.1 50.3 131.6 50.3C131.2 50.3 130.8 50.4 130.4 50.6C130.1 50.7 129.8 51 129.6 51.4C129.4 51.8 129.2 52.3 129.1 53C129 53.7 128.9 54.5 128.9 55.5C128.9 56.5 129 57.3 129.1 58C129.2 58.7 129.4 59.2 129.6 59.6C129.8 60 130.1 60.3 130.5 60.5C130.8 60.7 131.2 60.7 131.6 60.7C132 60.7 132.4 60.6 132.7 60.5C133 60.3 133.3 60 133.5 59.6C133.7 59.2 133.9 58.7 134 58C134.2 57.3 134.3 56.5 134.3 55.5ZM138 62V60.6H141.2V50.6L138.4 52.7V51.1L141.3 49H142.8V60.6H145.8V62H138ZM155.9 55.5C155.9 56.7 155.8 57.7 155.6 58.6C155.4 59.4 155.1 60.1 154.7 60.6C154.3 61.1 153.9 61.5 153.3 61.7C152.7 61.9 152.2 62 151.6 62C151 62 150.4 61.9 149.9 61.7C149.4 61.5 148.9 61.1 148.5 60.6C148.1 60.1 147.8 59.4 147.6 58.6C147.4 57.8 147.3 56.7 147.3 55.5C147.3 54.2 147.4 53.2 147.6 52.3C147.8 51.5 148.1 50.8 148.5 50.3C148.9 49.8 149.3 49.5 149.9 49.3C150.4 49.1 151 49 151.6 49C152.2 49 152.7 49.1 153.3 49.3C153.8 49.5 154.3 49.8 154.7 50.3C155.1 50.8 155.4 51.5 155.6 52.3C155.8 53.2 155.9 54.2 155.9 55.5ZM154.3 55.5C154.3 54.5 154.2 53.7 154.1 53C154 52.3 153.8 51.8 153.6 51.4C153.4 51 153.1 50.7 152.8 50.6C152.5 50.4 152.1 50.4 151.7 50.4C151.3 50.4 150.9 50.5 150.5 50.7C150.1 50.7 149.8 51 149.6 51.4C149.4 51.8 149.2 52.3 149.1 53C149 53.7 148.9 54.5 148.9 55.5C148.9 56.5 149 57.3 149.1 58C149.2 58.7 149.4 59.2 149.6 59.6C149.8 60 150.1 60.3 150.5 60.5C150.8 60.7 151.2 60.7 151.6 60.7C152 60.7 152.4 60.6 152.7 60.5C153 60.3 153.3 60 153.5 59.6C153.7 59.2 153.9 58.7 154 58C154.2 57.3 154.3 56.5 154.3 55.5ZM165.8 58C165.8 58.6 165.7 59.1 165.6 59.6C165.4 60.1 165.2 60.5 164.8 60.9C164.5 61.3 164 61.5 163.5 61.7C163 61.9 162.3 62 161.6 62C160.9 62 160.2 61.9 159.7 61.7C159.2 61.5 158.7 61.2 158.4 60.9C158.1 60.5 157.8 60.1 157.6 59.7C157.4 59.2 157.4 58.7 157.4 58.1C157.4 57.6 157.5 57.2 157.6 56.8C157.7 56.4 157.9 56.1 158.2 55.8C158.4 55.5 158.7 55.3 159 55.1C159.3 54.9 159.6 54.8 159.9 54.8C159.6 54.7 159.2 54.6 159 54.4C158.7 54.2 158.5 54 158.3 53.8C158.1 53.6 158 53.3 157.9 53C157.8 52.7 157.8 52.4 157.8 52.1C157.8 51.7 157.9 51.3 158 51C158.2 50.6 158.4 50.3 158.7 50.1C159 49.8 159.4 49.6 159.9 49.5C160.4 49.1 160.9 49 161.6 49C162.3 49 162.9 49.1 163.4 49.2C163.9 49.4 164.3 49.6 164.6 49.8C164.9 50.1 165.2 50.4 165.3 50.7C165.5 51.1 165.5 51.4 165.5 51.8C165.5 52.1 165.4 52.4 165.3 52.7C165.2 53 165.1 53.3 164.9 53.5C164.7 53.7 164.5 53.9 164.2 54.1C163.9 54.3 163.6 54.4 163.2 54.4C163.6 54.5 163.9 54.6 164.2 54.8C164.5 55 164.8 55.2 165 55.5C165.2 55.8 165.4 56.1 165.5 56.5C165.8 57 165.8 57.5 165.8 58ZM163.9 52.1C163.9 51.8 163.9 51.6 163.8 51.3C163.7 51.1 163.6 50.9 163.4 50.7C163.2 50.5 163 50.4 162.7 50.3C162.4 50.2 162 50.2 161.6 50.2C161.2 50.2 160.8 50.2 160.5 50.3C160.2 50.4 160 50.5 159.8 50.7C159.6 50.9 159.5 51.1 159.4 51.3C159.3 51.5 159.3 51.8 159.3 52.1C159.3 52.3 159.3 52.5 159.4 52.8C159.5 53 159.6 53.2 159.7 53.4C159.9 53.6 160.1 53.7 160.4 53.9C160.7 53.9 161.1 54 161.6 54C162.1 54 162.5 53.9 162.8 53.8C163.1 53.7 163.3 53.5 163.5 53.3C163.6 53.2 163.7 53 163.8 52.7C163.9 52.5 163.9 52.3 163.9 52.1ZM164.2 57.8C164.2 57.5 164.2 57.1 164.1 56.8C164 56.5 163.9 56.2 163.7 56C163.5 55.8 163.2 55.6 162.9 55.4C162.6 55.2 162.1 55.2 161.6 55.2C161.1 55.2 160.7 55.3 160.4 55.4C160.1 55.5 159.8 55.7 159.6 56C159.4 56.2 159.3 56.5 159.2 56.8C159.1 57.1 159.1 57.4 159.1 57.8C159.1 58.2 159.1 58.6 159.2 59C159.3 59.4 159.4 59.7 159.6 59.9C159.8 60.2 160.1 60.4 160.4 60.5C160.7 60.6 161.1 60.7 161.6 60.7C162.1 60.7 162.5 60.6 162.8 60.5C163.1 60.4 163.4 60.2 163.6 59.9C163.8 59.6 163.9 59.3 164 59C164.1 58.7 164.2 58.3 164.2 57.8ZM175.8 57.8C175.8 58.4 175.7 59 175.5 59.5C175.3 60 175.1 60.4 174.7 60.8C174.4 61.2 173.9 61.4 173.5 61.6C173 61.8 172.4 61.9 171.8 61.9C171.1 61.9 170.4 61.8 169.9 61.5C169.4 61.2 168.9 60.8 168.6 60.3C168.2 59.8 168 59.1 167.8 58.4C167.6 57.6 167.5 56.8 167.5 55.8C167.5 54.7 167.6 53.7 167.8 52.8C168 51.9 168.3 51.2 168.7 50.7C169.1 50.1 169.6 49.7 170.1 49.4C170.6 49.1 171.3 49 171.9 49C172.3 49 172.7 49 173.1 49.1C173.5 49.2 173.8 49.3 174.1 49.6C174.4 49.8 174.7 50.1 174.9 50.4C175.1 50.7 175.3 51.2 175.4 51.7L174 52C173.8 51.4 173.6 51 173.2 50.7C172.8 50.4 172.4 50.3 172 50.3C171.6 50.3 171.2 50.4 170.8 50.6C170.5 50.8 170.2 51.1 169.9 51.6C169.7 52 169.5 52.6 169.3 53.3C169.2 54 169.1 54.7 169.1 55.6C169.4 55.1 169.8 54.7 170.3 54.4C170.8 54.1 171.4 54 172.1 54C172.7 54 173.2 54.1 173.6 54.3C174.1 54.5 174.4 54.7 174.8 55.1C175.1 55.4 175.4 55.8 175.6 56.3C175.7 56.7 175.8 57.2 175.8 57.8ZM174.2 57.9C174.2 57.5 174.1 57.1 174 56.8C173.9 56.5 173.7 56.2 173.5 56C173.3 55.8 173 55.6 172.7 55.5C172.4 55.4 172 55.3 171.6 55.3C171.3 55.3 171 55.3 170.7 55.4C170.4 55.5 170.1 55.6 169.9 55.8C169.7 56 169.5 56.2 169.3 56.5C169.2 56.8 169.1 57.2 169.1 57.6C169.1 58 169.2 58.5 169.3 58.8C169.4 59.2 169.6 59.5 169.8 59.8C170 60.1 170.3 60.3 170.6 60.5C170.9 60.7 171.3 60.7 171.6 60.7C172 60.7 172.3 60.6 172.6 60.5C172.9 60.4 173.2 60.2 173.4 60C173.6 59.8 173.8 59.5 173.9 59.1C174.2 58.7 174.2 58.3 174.2 57.9ZM184.4 59.2V62H182.9V59.2H177.1V58L182.8 49H184.5V58H186.2V59.3H184.4V59.2ZM182.8 50.9C182.8 50.9 182.8 51 182.7 51.1C182.7 51.2 182.6 51.3 182.5 51.4C182.4 51.5 182.4 51.6 182.3 51.8C182.2 51.9 182.2 52 182.1 52.1L178.9 57.2C178.9 57.3 178.8 57.3 178.8 57.4C178.7 57.5 178.7 57.6 178.6 57.6C178.5 57.7 178.5 57.8 178.4 57.8C178.3 57.9 178.3 57.9 178.3 57.9H182.7V50.9H182.8Z" fill="black"/>
</svg>
