<svg width="28" height="28" viewBox="0 0 28 28" fill="none" xmlns="http://www.w3.org/2000/svg">
<path d="M12.1217 16.5H14.6608L14.7389 15.8906C14.7467 15.7812 14.778 15.6797 14.8326 15.5703C14.8873 15.4688 14.9733 15.3516 15.0905 15.2266C15.2076 15.1016 15.3092 15 15.403 14.9141C15.4889 14.8359 15.6217 14.7109 15.8092 14.5391C15.8561 14.5 15.8873 14.4688 15.9186 14.4453C16.0826 14.2969 16.2233 14.1562 16.3483 14.0312C16.4655 13.9062 16.5905 13.7578 16.7311 13.5781C16.8639 13.3984 16.9733 13.2188 17.0592 13.0469C17.1373 12.875 17.2076 12.6797 17.2701 12.4531C17.3248 12.2344 17.3561 12 17.3561 11.7656C17.3561 11.2344 17.2623 10.7578 17.0748 10.3359C16.8873 9.91406 16.6217 9.57812 16.2936 9.32812C15.9655 9.07812 15.5826 8.88281 15.1608 8.75C14.7311 8.625 14.2623 8.55469 13.7623 8.55469C13.0748 8.55469 12.4108 8.69531 11.7623 8.96875C11.1061 9.24219 10.5983 9.59375 10.2311 10.0234L12.153 11.7734C12.5826 11.3438 13.0436 11.125 13.5436 11.125C13.8248 11.125 14.0358 11.1953 14.1764 11.3359C14.317 11.4766 14.3873 11.6719 14.3873 11.9219C14.3873 12.0469 14.3639 12.1719 14.317 12.2969C14.2701 12.4219 14.192 12.5469 14.0826 12.6875C13.9733 12.8281 13.8873 12.9453 13.8092 13.0312C13.7311 13.1172 13.6139 13.2344 13.4733 13.3828L13.4108 13.4453C13.3795 13.4844 13.2936 13.5703 13.153 13.7109C13.0123 13.8516 12.9264 13.9531 12.8795 14.0078C12.8326 14.0625 12.7545 14.1562 12.6451 14.2812C12.5358 14.4141 12.4576 14.5234 12.4108 14.6094C12.3639 14.7031 12.317 14.8125 12.2545 14.9375C12.192 15.0703 12.153 15.2031 12.1295 15.3281C12.1061 15.4609 12.0983 15.5938 12.1061 15.7344L12.1217 16.5ZM13.4498 20.6641C13.8717 20.6641 14.2389 20.5156 14.5436 20.2188C14.8483 19.9219 15.0045 19.5547 15.0045 19.125C15.0045 18.7109 14.8483 18.3516 14.5436 18.0547C14.2389 17.7578 13.8717 17.6016 13.4498 17.6016C13.1686 17.6016 12.903 17.6719 12.6686 17.8125C12.4264 17.9531 12.2389 18.1328 12.0983 18.3672C11.9576 18.6016 11.8873 18.8594 11.8873 19.125C11.8873 19.5547 12.0358 19.9219 12.3405 20.2188C12.6451 20.5156 13.0123 20.6641 13.4498 20.6641Z" fill="white"/>
<circle cx="13.9889" cy="14" r="13" stroke="white"/>
</svg>
