<svg width="83" height="32" viewBox="0 0 83 32" fill="none" xmlns="http://www.w3.org/2000/svg">
<path d="M17.3834 15.2902V15.2352C17.9752 15.0155 18.4824 14.727 18.9051 14.3974C19.3278 14.0677 19.666 13.6968 19.8914 13.2985C20.1168 12.9002 20.2718 12.5018 20.3705 12.1172C20.4691 11.7326 20.5254 11.3068 20.5254 10.8673C20.5254 10.1118 20.3845 9.4388 20.1168 8.83443C19.8491 8.24379 19.4405 7.73558 18.891 7.30977C18.3415 6.88397 17.637 6.55431 16.7635 6.3208C15.8899 6.10103 14.8895 5.97741 13.7342 5.97741H5.6889V25.9628H15.115C16.1717 25.9628 17.1157 25.8254 17.947 25.537C18.7783 25.2623 19.4546 24.8639 19.99 24.3557C20.5114 23.8612 20.9059 23.2706 21.1877 22.5838C21.4554 21.9108 21.5963 21.169 21.5963 20.3449C21.5963 19.7405 21.5117 19.1911 21.3708 18.6829C21.2299 18.1884 20.9904 17.7077 20.6804 17.2544C20.3705 16.8148 19.9337 16.4165 19.3842 16.0868C18.8206 15.7572 18.1584 15.4962 17.3834 15.2902ZM11.0008 10.6338H12.7479C13.241 10.6338 13.6637 10.7162 14.016 10.8536C14.3541 11.0047 14.6077 11.197 14.7768 11.4305C14.9318 11.6777 15.0163 11.9524 15.0163 12.2683C15.0163 12.7628 14.805 13.1612 14.4105 13.4359C14.0019 13.7243 13.4665 13.8617 12.7902 13.8617H11.0008V10.6338ZM13.4242 21.3751H11.0008V17.7763H13.396C14.2414 17.7763 14.8614 17.9412 15.284 18.2708C15.7067 18.6005 15.9181 19.0263 15.9181 19.562C15.9181 20.1526 15.6926 20.6059 15.2418 20.9081C14.7909 21.224 14.185 21.3751 13.4242 21.3751Z" fill="white"/>
<path d="M33.643 26.2512C35.1788 26.2512 36.6019 26.004 37.9263 25.5095C39.2367 25.015 40.3639 24.3145 41.2938 23.4217C42.2237 22.5289 42.9423 21.4437 43.4777 20.1663C43.999 18.8889 44.2667 17.4879 44.2667 15.977C44.2667 14.466 43.999 13.0787 43.4777 11.7876C42.9423 10.5102 42.2237 9.42506 41.2938 8.53224C40.3639 7.63943 39.2367 6.93891 37.9263 6.44443C36.6019 5.94994 35.1788 5.68896 33.643 5.68896C32.0791 5.68896 30.6419 5.94994 29.3175 6.44443C27.993 6.95264 26.8658 7.65316 25.9359 8.54598C25.006 9.45253 24.2733 10.5376 23.752 11.8151C23.2307 13.0925 22.9771 14.4798 22.9771 15.977C22.9771 17.4879 23.2307 18.8752 23.752 20.1389C24.2733 21.4163 25.006 22.5014 25.9359 23.3942C26.8658 24.3008 27.993 25.0013 29.3175 25.4958C30.6419 26.004 32.0791 26.2512 33.643 26.2512ZM33.6289 21.2652C32.6849 21.2652 31.8395 21.0317 31.0787 20.5647C30.3178 20.0977 29.7402 19.4521 29.3175 18.6554C28.8948 17.8587 28.6975 16.9659 28.6975 15.977C28.6975 15.0017 28.8948 14.1089 29.3175 13.2985C29.7402 12.5018 30.3178 11.8563 31.0787 11.3893C31.8254 10.9222 32.6708 10.6887 33.6289 10.6887C34.573 10.6887 35.4183 10.936 36.1792 11.403C36.94 11.87 37.5177 12.5156 37.9263 13.3122C38.3349 14.1089 38.5463 15.0017 38.5463 15.977C38.5463 16.9659 38.3349 17.8587 37.9263 18.6554C37.5177 19.4521 36.94 20.0977 36.1792 20.5647C35.4183 21.0317 34.573 21.2652 33.6289 21.2652Z" fill="white"/>
<path d="M52.9601 26.2512C53.4673 26.2512 53.9605 26.2238 54.4677 26.1551C54.9609 26.0864 55.4681 25.9765 55.9894 25.8117C56.4966 25.6606 56.9898 25.4683 57.4407 25.221C57.8915 24.9875 58.3142 24.6854 58.7228 24.3282C59.1173 23.9711 59.4696 23.5728 59.7514 23.1332C60.0332 22.6937 60.2586 22.1717 60.4277 21.5674C60.5968 20.9767 60.6813 20.3312 60.6813 19.6306C60.6813 18.779 60.5404 18.0236 60.2586 17.3917C59.8359 16.4302 59.0046 15.6336 57.7647 14.9743C57.2011 14.6858 56.0458 14.2188 54.3268 13.5595C53.3405 13.2024 52.6642 12.8727 52.3261 12.5705C51.9738 12.2683 51.8048 11.9387 51.8048 11.5678C51.8048 11.2107 51.9175 10.9222 52.1711 10.7025C52.4106 10.4964 52.7629 10.3866 53.2419 10.3866C53.7632 10.3866 54.3268 10.5239 54.9327 10.7986C55.5385 11.0733 56.2712 11.5403 57.1448 12.1859L60.1882 8.36742C59.1737 7.51581 58.0606 6.84276 56.8207 6.37575C55.5808 5.90874 54.2846 5.67523 52.9319 5.7027C51.6357 5.73017 50.4662 6.01862 49.4236 6.54057C48.3809 7.07626 47.5637 7.80425 46.972 8.71081C46.3802 9.61736 46.0984 10.6338 46.0984 11.7464C46.0984 12.3233 46.1548 12.8452 46.2816 13.3397C46.4084 13.8342 46.5774 14.2737 46.7747 14.6583C46.972 15.0429 47.2397 15.4001 47.5637 15.7297C47.8878 16.0731 48.2259 16.3616 48.5641 16.5951C48.9023 16.8423 49.2827 17.0758 49.7336 17.2956C50.1844 17.5154 50.593 17.7077 50.9875 17.8587C51.3821 18.0098 51.8188 18.1609 52.3261 18.3258C53.3828 18.6829 54.0732 18.9851 54.4114 19.246C54.7495 19.507 54.9186 19.8367 54.9186 20.2487C54.9186 20.6059 54.7636 20.9218 54.4818 21.169C54.1859 21.4163 53.7491 21.5399 53.1574 21.5399C52.4529 21.5399 51.692 21.3613 50.8607 21.0042C50.0294 20.6471 49.2404 20.0839 48.4796 19.3285L45.3798 23.0508C46.4506 24.1222 47.6342 24.9189 48.9445 25.4546C50.2408 25.9902 51.5793 26.2512 52.9601 26.2512Z" fill="white"/>
<path d="M69.0788 26.2512C69.5861 26.2512 70.0792 26.2238 70.5864 26.1551C71.0796 26.0864 71.5868 25.9765 72.1081 25.8117C72.6154 25.6606 73.1085 25.4683 73.5594 25.221C74.0102 24.9875 74.4329 24.6854 74.8415 24.3282C75.2361 23.9711 75.5883 23.5728 75.8701 23.1332C76.1519 22.6937 76.3773 22.1717 76.5464 21.5674C76.7155 20.9767 76.8 20.3312 76.8 19.6306C76.8 18.779 76.6591 18.0236 76.3773 17.3917C75.9546 16.4302 75.1233 15.6336 73.8834 14.9743C73.3198 14.6858 72.1645 14.2188 70.4455 13.5595C69.4592 13.2024 68.7829 12.8727 68.4448 12.5705C68.0925 12.2683 67.9235 11.9387 67.9235 11.5678C67.9235 11.2107 68.0362 10.9222 68.2898 10.7025C68.5293 10.4964 68.8816 10.3866 69.3606 10.3866C69.8819 10.3866 70.4455 10.5239 71.0514 10.7986C71.6572 11.0733 72.3899 11.5403 73.2635 12.1859L76.3069 8.36742C75.2924 7.51581 74.1793 6.84276 72.9394 6.37575C71.6995 5.90874 70.4033 5.67523 69.0506 5.7027C67.7544 5.73017 66.5849 6.01862 65.5423 6.54057C64.4996 7.07626 63.6824 7.80425 63.0907 8.71081C62.4989 9.61736 62.2171 10.6338 62.2171 11.7464C62.2171 12.3233 62.2735 12.8452 62.4003 13.3397C62.5271 13.8342 62.6961 14.2737 62.8934 14.6583C63.0907 15.0429 63.3584 15.4001 63.6824 15.7297C64.0065 16.0731 64.3447 16.3616 64.6828 16.5951C65.021 16.8423 65.4014 17.0758 65.8523 17.2956C66.3031 17.5154 66.7117 17.7077 67.1063 17.8587C67.5008 18.0098 67.9375 18.1609 68.4448 18.3258C69.5015 18.6829 70.1919 18.9851 70.5301 19.246C70.8682 19.507 71.0373 19.8367 71.0373 20.2487C71.0373 20.6059 70.8823 20.9218 70.6005 21.169C70.3046 21.4163 69.8679 21.5399 69.2761 21.5399C68.5716 21.5399 67.8107 21.3613 66.9794 21.0042C66.1481 20.6471 65.3591 20.0839 64.5983 19.3285L61.4985 23.0508C62.5693 24.1222 63.7529 24.9189 65.0632 25.4546C66.3595 25.9902 67.698 26.2512 69.0788 26.2512Z" fill="white"/>
</svg>
