<svg width="265" height="313" viewBox="0 0 265 313" fill="none" xmlns="http://www.w3.org/2000/svg">
<rect width="264" height="228" transform="translate(0.5 42.5)" fill="transparent"/>
<g clip-path="url(#clip0_742_9547)">
<path d="M195.908 319.578C195.908 322.587 195.908 325.936 195.908 329.286C195.811 346.809 195.569 364.332 195.73 381.855C195.779 386.644 193.748 389.605 189.605 390.495C180.61 392.437 171.519 394.136 162.379 395.236C156.56 395.932 150.596 395.365 144.825 395.365C142.504 401.918 142.472 402.145 135.476 401.287C118.18 399.184 100.884 397.048 83.6525 394.508C79.2358 393.861 75.0125 391.741 70.7893 390.042C67.4687 388.715 66.163 386.143 66.1791 382.389C66.2597 362.973 66.0985 343.573 66.0179 324.157C66.0179 322.684 66.0179 321.212 66.0179 319.27C61.1499 318.769 56.3947 318.413 51.6878 317.749C47.5774 317.167 43.5315 316.196 39.4372 315.452C36.31 314.885 35.1978 313.008 35.5685 309.95C37.5673 294.045 39.55 278.14 41.5165 262.235C44.8855 234.972 48.2383 207.708 51.5911 180.428C54.1057 159.977 56.572 139.525 59.0866 119.073C60.4729 107.699 66.84 99.8675 76.5922 94.4472C83.5074 90.5963 90.4387 86.794 97.1927 82.6842C103.157 79.0599 106.8 73.4939 109.298 67.0057C109.943 65.3391 111.458 63.5108 113.038 62.7665C125.015 57.1358 137.185 57.1358 149.242 62.4267C150.838 63.1224 152.401 64.9993 152.998 66.6821C155.303 73.2836 159.01 78.8495 164.862 82.5548C171.535 86.794 178.531 90.4992 185.462 94.3177C195.247 99.7219 201.598 107.472 202.887 118.928C203.709 126.29 204.644 133.635 205.547 140.997C209.206 170.801 212.881 200.605 216.556 230.425C219.813 256.896 223.069 283.35 226.357 309.821C226.744 312.911 225.503 314.805 222.44 315.306C213.865 316.714 205.273 318.073 195.94 319.561L195.908 319.578ZM99.1915 91.1626C92.1313 94.9164 85.3128 98.3304 78.6877 102.1C72.3206 105.725 67.9523 111.08 66.9367 118.588C65.486 129.267 64.2287 139.962 62.9069 150.657C59.2478 180.331 55.6048 210.006 51.978 239.696C50.0598 255.31 48.1738 270.924 46.2073 286.991C49.3344 287.428 52.2037 287.848 55.089 288.221C57.7004 288.56 60.0538 289.305 59.7314 292.557C59.3768 296.084 56.7171 296.181 53.9929 295.906C51.1237 295.615 48.2544 295.291 45.2079 294.968C44.6115 299.854 44.0795 304.19 43.4992 309.028C51.1881 309.87 58.4257 310.646 65.6311 311.439C65.8406 310.242 65.9696 309.853 65.9535 309.465C65.2764 275.05 67.4203 240.764 70.08 206.495C72.0143 181.513 73.5134 156.482 75.2221 131.467C75.3994 128.798 75.8185 125.966 79.2842 126.096C82.9755 126.225 83.185 129.089 82.9755 131.985C81.4925 153.23 79.9934 174.458 78.5427 195.702C77.0274 217.885 74.7063 240.052 74.2872 262.251C73.5618 300.663 74.0292 339.091 74.0131 377.503C74.0131 383.797 73.9325 384.298 80.2191 385.609C92.1474 388.084 104.189 390.123 116.23 391.968C122.79 392.971 129.464 393.165 136.314 393.731C136.411 391.838 136.524 390.511 136.54 389.185C137.136 329.609 139.264 270.034 135.299 210.491C134.138 193.162 133.735 175.607 130.576 158.618C125.821 132.972 118.97 107.731 112.99 82.3283C112.732 81.2604 112.361 80.2248 112.087 79.3673C105.236 83.202 105.51 88.1046 108.38 94.3016C111.587 101.243 113.941 108.589 116.278 115.886C116.762 117.374 115.923 119.704 114.924 121.047C114.44 121.695 111.894 121.387 110.717 120.724C109.75 120.19 109.282 118.556 108.831 117.31C105.591 108.637 102.415 99.9484 99.1754 91.1464L99.1915 91.1626ZM144.326 387.874C157.737 388.359 170.649 387.939 183.431 384.962C187.09 384.104 188.267 382.389 188.267 378.57C188.251 326.972 190.008 275.357 185.543 223.807C182.948 193.874 181.287 163.86 179.24 133.894C179.031 130.788 177.822 126.565 182.529 126.193C187.268 125.82 186.703 130.189 186.913 133.28C188.154 151.159 189.234 169.054 190.508 186.917C193.361 226.963 197.02 266.976 196.069 307.216C196.037 308.494 196.069 309.756 196.069 311.601C204.032 310.662 211.269 309.805 218.749 308.915C218.072 303.77 217.491 299.45 216.879 294.871C213.3 295.275 210.254 295.647 207.207 295.971C204.693 296.246 202.468 295.728 202.114 292.767C201.775 289.903 203.532 288.706 206.192 288.366C209.351 287.962 212.494 287.395 215.799 286.878C215.702 285.874 215.654 285.227 215.573 284.58C212.204 257.041 208.835 229.503 205.45 201.964C202.081 174.701 198.632 147.437 195.343 120.174C194.36 112.019 190.25 106.065 183.334 102.084C176.726 98.2981 169.907 94.8841 163.024 91.2112C162.557 92.2467 162.073 93.2013 161.718 94.1883C158.801 102.133 155.915 110.11 152.966 118.054C151.563 121.824 148.339 123.135 146.405 120.578C145.502 119.381 145.325 116.986 145.841 115.481C148.952 106.453 152.434 97.5538 155.561 88.5414C155.996 87.2794 155.48 85.3054 154.723 84.0919C153.562 82.2312 151.805 80.7426 150.096 78.8495C149.71 79.966 149.387 80.7103 149.194 81.4707C145.357 97.1493 141.859 112.925 137.604 128.49C135.428 136.418 135.105 143.958 137.394 151.822C138.507 155.673 139.119 159.75 139.361 163.763C141.36 196.981 144.181 230.182 144.858 263.433C145.664 302.766 144.584 342.133 144.326 381.499C144.326 383.489 144.326 385.463 144.326 387.858V387.874ZM144.374 68.8017C135.283 65.2744 126.53 65.1935 117.551 68.8664C121.984 86.794 126.353 104.366 130.705 121.937C130.914 121.905 131.124 121.873 131.317 121.84C135.653 104.252 139.99 86.6484 144.374 68.8017Z" fill="url(#paint0_linear_742_9547)"/>
<path fill-rule="evenodd" clip-rule="evenodd" d="M151.188 162.053C151.188 159.819 152.999 158.008 155.233 158.008H169.795C172.029 158.008 173.84 159.819 173.84 162.053C173.84 164.287 172.029 166.098 169.795 166.098H155.233C152.999 166.098 151.188 164.287 151.188 162.053Z" fill="#DCDCDC"/>
<g opacity="0.4">
<path d="M386.833 319.578C386.833 322.587 386.833 325.936 386.833 329.286C386.737 346.809 386.495 364.332 386.656 381.855C386.704 386.644 384.673 389.605 380.531 390.495C371.536 392.437 362.445 394.136 353.305 395.236C347.486 395.932 341.522 395.365 335.751 395.365C333.43 401.918 333.398 402.145 326.402 401.287C309.106 399.184 291.81 397.048 274.578 394.508C270.162 393.861 265.938 391.741 261.715 390.042C258.394 388.715 257.089 386.143 257.105 382.389C257.186 362.973 257.024 343.573 256.944 324.157C256.944 322.684 256.944 321.212 256.944 319.27C252.076 318.769 247.32 318.413 242.614 317.749C238.503 317.167 234.457 316.196 230.363 315.452C227.236 314.885 226.124 313.008 226.494 309.95C228.493 294.045 230.476 278.14 232.442 262.235C235.811 234.972 239.164 207.708 242.517 180.428C245.032 159.977 247.498 139.525 250.012 119.073C251.399 107.699 257.766 99.8675 267.518 94.4472C274.433 90.5963 281.365 86.794 288.119 82.6842C294.083 79.0599 297.726 73.4939 300.224 67.0057C300.869 65.3391 302.384 63.5108 303.964 62.7665C315.94 57.1358 328.111 57.1358 340.168 62.4267C341.764 63.1224 343.327 64.9993 343.924 66.6821C346.229 73.2836 349.936 78.8495 355.788 82.5548C362.461 86.794 369.457 90.4992 376.388 94.3177C386.172 99.7219 392.523 107.472 393.813 118.928C394.635 126.29 395.57 133.635 396.473 140.997C400.132 170.801 403.807 200.605 407.482 230.425C410.738 256.896 413.994 283.35 417.283 309.821C417.67 312.911 416.428 314.805 413.366 315.306C404.79 316.714 396.199 318.073 386.866 319.561L386.833 319.578ZM290.117 91.1626C283.057 94.9164 276.239 98.3304 269.614 102.1C263.246 105.725 258.878 111.08 257.863 118.588C256.412 129.267 255.154 139.962 253.833 150.657C250.174 180.331 246.531 210.006 242.904 239.696C240.986 255.31 239.1 270.924 237.133 286.991C240.26 287.428 243.129 287.848 246.015 288.221C248.626 288.56 250.98 289.305 250.657 292.557C250.303 296.084 247.643 296.181 244.919 295.906C242.049 295.615 239.18 295.291 236.134 294.968C235.537 299.854 235.005 304.19 234.425 309.028C242.114 309.87 249.352 310.646 256.557 311.439C256.766 310.242 256.895 309.853 256.879 309.465C256.202 275.05 258.346 240.764 261.006 206.495C262.94 181.513 264.439 156.482 266.148 131.467C266.325 128.798 266.744 125.966 270.21 126.096C273.901 126.225 274.111 129.089 273.901 131.985C272.418 153.23 270.919 174.458 269.468 195.702C267.953 217.885 265.632 240.052 265.213 262.251C264.488 300.663 264.955 339.091 264.939 377.503C264.939 383.797 264.858 384.298 271.145 385.609C283.073 388.084 295.114 390.123 307.155 391.968C313.716 392.971 320.389 393.165 327.24 393.731C327.337 391.838 327.45 390.511 327.466 389.185C328.062 329.609 330.19 270.034 326.225 210.491C325.064 193.162 324.661 175.607 321.502 158.618C316.746 132.972 309.896 107.731 303.915 82.3283C303.658 81.2604 303.287 80.2248 303.013 79.3673C296.162 83.202 296.436 88.1046 299.305 94.3016C302.513 101.243 304.867 108.589 307.204 115.886C307.687 117.374 306.849 119.704 305.85 121.047C305.366 121.695 302.819 121.387 301.643 120.724C300.675 120.19 300.208 118.556 299.757 117.31C296.517 108.637 293.341 99.9484 290.101 91.1464L290.117 91.1626ZM335.251 387.874C348.663 388.359 361.574 387.939 374.357 384.962C378.016 384.104 379.193 382.389 379.193 378.57C379.177 326.972 380.934 275.357 376.469 223.807C373.873 193.874 372.213 163.86 370.166 133.894C369.956 130.788 368.747 126.565 373.454 126.193C378.193 125.82 377.629 130.189 377.839 133.28C379.08 151.159 380.16 169.054 381.433 186.917C384.286 226.963 387.946 266.976 386.995 307.216C386.962 308.494 386.995 309.756 386.995 311.601C394.958 310.662 402.195 309.805 409.674 308.915C408.997 303.77 408.417 299.45 407.805 294.871C404.226 295.275 401.18 295.647 398.133 295.971C395.618 296.246 393.394 295.728 393.039 292.767C392.701 289.903 394.458 288.706 397.117 288.366C400.277 287.962 403.42 287.395 406.725 286.878C406.628 285.874 406.58 285.227 406.499 284.58C403.13 257.041 399.761 229.503 396.376 201.964C393.007 174.701 389.558 147.437 386.269 120.174C385.286 112.019 381.175 106.065 374.26 102.084C367.651 98.2981 360.833 94.8841 353.95 91.2112C353.482 92.2467 352.999 93.2013 352.644 94.1883C349.727 102.133 346.841 110.11 343.891 118.054C342.489 121.824 339.265 123.135 337.331 120.578C336.428 119.381 336.251 116.986 336.767 115.481C339.878 106.453 343.359 97.5538 346.487 88.5414C346.922 87.2794 346.406 85.3054 345.648 84.0919C344.488 82.2312 342.731 80.7426 341.022 78.8495C340.635 79.966 340.313 80.7103 340.12 81.4707C336.283 97.1493 332.785 112.925 328.53 128.49C326.354 136.418 326.031 143.958 328.32 151.822C329.432 155.673 330.045 159.75 330.287 163.763C332.286 196.981 335.106 230.182 335.783 263.433C336.589 302.766 335.509 342.133 335.251 381.499C335.251 383.489 335.251 385.463 335.251 387.858V387.874ZM335.3 68.8017C326.209 65.2744 317.456 65.1935 308.477 68.8664C312.91 86.794 317.278 104.366 321.631 121.937C321.84 121.905 322.05 121.873 322.243 121.84C326.579 104.252 330.915 86.6484 335.3 68.8017Z" fill="url(#paint1_linear_742_9547)"/>
</g>
</g>
<circle cx="147.5" cy="109.503" r="27.5" fill="url(#paint2_radial_742_9547)"/>
<path d="M109.009 160.672C109.228 162.345 109.595 164.365 111.75 164.695C113.906 165.025 114.709 163.339 115.545 161.69C118.96 154.95 122.188 148.093 125.978 141.571C132.839 129.768 140.04 118.159 147.128 106.486C148.782 103.764 152.391 102.547 154.626 103.857C157.111 105.315 158.291 108.869 156.93 111.326C153.325 117.829 149.632 124.282 145.981 130.762C143.821 134.599 141.67 138.44 139.519 142.282C138.795 143.573 138.66 144.907 139.719 146.026C140.876 147.248 141.949 146.565 143.166 145.808C147.11 143.36 151.453 145.901 151.685 150.694C151.797 153.054 152.73 153.858 155.025 153.616C160.418 153.05 161.77 156.185 161.895 159.576C161.998 162.456 162.327 162.874 165.291 163.376C168.041 163.841 169.969 165.94 169.755 168.751C169.472 172.462 168.966 176.164 168.385 179.843C167.363 186.296 166.239 192.734 165.11 199.172C164.278 203.92 163.424 208.658 165.616 213.28C168.315 218.956 171.028 224.623 173.759 230.286C174.382 231.573 175.501 232.121 176.737 231.378C178.01 230.611 178.558 229.538 177.68 227.889C175.515 223.815 173.444 219.681 171.534 215.477C169.899 211.877 168.194 208.184 168.9 204.064C170.039 197.416 171.418 190.811 172.533 184.159C173.239 179.95 173.43 175.649 174.238 171.468C175.251 166.233 173.039 161.439 168.255 159.167C167.553 158.833 166.792 158.048 166.592 157.323C165.379 152.892 162.778 149.988 158.202 148.925C157.39 148.734 156.228 148.219 156.015 147.587C154.472 142.993 151.137 140.698 146.51 139.922C146.613 139.434 146.599 139.095 146.743 138.849C150.733 132.044 154.853 125.308 158.695 118.419C160.572 115.056 162.801 111.879 162.49 107.494C162.193 103.294 157.826 98.6817 153.441 98.3426C148.708 97.9757 145.238 99.8384 142.822 103.963C137.466 113.115 131.924 122.154 126.62 131.338C122.132 139.114 117.873 147.02 113.427 155.028C111.955 151.535 110.626 148.112 109.079 144.79C107.778 141.994 106.524 139.1 104.727 136.629C100.741 131.143 95.4128 129.419 89.3368 130.934C86.2896 131.691 84.9146 133.967 85.7321 137.107C86.6101 140.466 87.4137 143.899 88.7748 147.071C91.6316 153.728 93.7266 160.459 93.1924 167.826C93.0716 169.48 93.3968 171.185 93.6337 172.848C93.9077 174.78 93.9867 176.829 94.7207 178.589C96.8668 183.731 99.3706 188.725 101.596 193.835C103.937 199.219 106.074 204.719 111.244 208.17C113.58 209.731 115.954 211.245 118.407 212.611C120.265 213.647 121.742 214.892 122.295 217.01C123.122 220.155 124.018 223.29 124.701 226.468C125.096 228.303 125.932 229.283 127.823 228.841C129.685 228.409 129.541 226.858 129.295 225.487C128.956 223.629 128.417 221.808 127.985 219.964C126.745 214.646 124.882 210.084 119.182 207.613C112.958 204.914 108.731 199.994 106.538 193.333C105.224 189.338 103.259 185.557 101.554 181.692C100.643 179.63 99.1058 177.665 98.8224 175.528C98.0513 169.615 97.8051 163.631 97.3127 157.676C97.2337 156.71 97.0619 155.721 96.7553 154.801C94.7764 148.934 92.779 143.076 90.7072 137.242C90.0894 135.5 91.1438 135.212 92.3562 135.059C95.8262 134.622 98.3114 136.517 100.578 138.747C100.578 138.747 106.25 147.619 109.005 160.682L109.009 160.672Z" fill="black"/>
<defs>
<linearGradient id="paint0_linear_742_9547" x1="130.963" y1="144.266" x2="130.963" y2="230.021" gradientUnits="userSpaceOnUse">
<stop stop-color="#EAEAEA"/>
<stop offset="1" stop-color="#DCDCDC" stop-opacity="0"/>
</linearGradient>
<linearGradient id="paint1_linear_742_9547" x1="321.889" y1="144.266" x2="321.889" y2="230.021" gradientUnits="userSpaceOnUse">
<stop stop-color="#DCDCDC"/>
<stop offset="1" stop-color="#DCDCDC" stop-opacity="0"/>
</linearGradient>
<radialGradient id="paint2_radial_742_9547" cx="0" cy="0" r="1" gradientUnits="userSpaceOnUse" gradientTransform="translate(147.5 109.503) rotate(89.1931) scale(35.5035)">
<stop stop-color="#987147"/>
<stop offset="1" stop-color="#987147" stop-opacity="0"/>
</radialGradient>
<clipPath id="clip0_742_9547">
<rect width="232" height="196" fill="white" transform="translate(16.5 58.5)"/>
</clipPath>
</defs>
</svg>
